<svg width="22" height="24" viewBox="0 0 22 24" fill="none" xmlns="http://www.w3.org/2000/svg">
<g clip-path="url(#clip0_132_2)">
<path d="M16.313 4V2.144C16.313 0.960001 15.353 5.69432e-07 14.169 5.69432e-07H7.831C7.54572 -0.000207537 7.26327 0.0566278 7.00027 0.167165C6.73727 0.277701 6.49903 0.439708 6.29955 0.643658C6.10007 0.847608 5.94339 1.08938 5.83871 1.35477C5.73403 1.62015 5.68347 1.90379 5.69 2.189V2.187V4H0V6H0.575C0.771 6.023 0.947 6.099 1.09 6.214L1.088 6.212C1.207 6.369 1.291 6.558 1.327 6.764L1.328 6.772L2.515 21.878C2.609 23.718 2.609 23.996 4.765 23.996H17.227C19.387 23.996 19.387 23.721 19.477 21.883L20.664 6.783C20.7 6.566 20.784 6.374 20.906 6.211L20.904 6.214C21.0502 6.0972 21.2262 6.02375 21.412 6.002H21.992V4.002H16.305L16.313 4ZM7 2.187C7 1.587 7.487 1.249 8.106 1.249H13.84C14.458 1.249 15.002 1.593 15.002 2.187V4H7.002L7 2.187ZM6.469 20L5.829 8H7.098L7.754 20H6.469ZM11.694 20H10.32V8H11.695L11.694 20ZM15.544 20H14.269L14.925 8H16.194L15.544 20Z" fill="white"/>
</g>
<defs>
<clipPath id="clip0_132_2">
<rect width="22" height="24" fill="white"/>
</clipPath>
</defs>
</svg>
